<mxfile host="Electron" agent="Mozilla/5.0 (Windows NT 10.0; Win64; x64) AppleWebKit/537.36 (KHTML, like Gecko) draw.io/24.7.17 Chrome/128.0.6613.36 Electron/32.0.1 Safari/537.36" version="24.7.17">
  <diagram name="Page-1" id="QP5_oBR8MMs9zjLN8A2d">
    <mxGraphModel dx="1036" dy="606" grid="1" gridSize="10" guides="1" tooltips="1" connect="1" arrows="1" fold="1" page="1" pageScale="1" pageWidth="850" pageHeight="1100" math="0" shadow="0">
      <root>
        <mxCell id="0" />
        <mxCell id="1" parent="0" />
        <mxCell id="3y9-HfJewCbZ7ZtlqcnH-1" value="Start" style="ellipse;whiteSpace=wrap;html=1;" vertex="1" parent="1">
          <mxGeometry x="350" y="20" width="120" height="80" as="geometry" />
        </mxCell>
        <mxCell id="3y9-HfJewCbZ7ZtlqcnH-10" value="" style="edgeStyle=orthogonalEdgeStyle;rounded=0;orthogonalLoop=1;jettySize=auto;html=1;" edge="1" parent="1" source="3y9-HfJewCbZ7ZtlqcnH-2" target="3y9-HfJewCbZ7ZtlqcnH-3">
          <mxGeometry relative="1" as="geometry" />
        </mxCell>
        <mxCell id="3y9-HfJewCbZ7ZtlqcnH-2" value="&lt;font style=&quot;font-size: 10px;&quot;&gt;Categories = [&quot;Pop Culture&quot;, &quot;Sports&quot;, &quot;Technology&quot;, &quot;Geography&quot;, &quot;History&quot;]&lt;/font&gt;&lt;div&gt;&lt;font style=&quot;font-size: 10px;&quot;&gt;Questions = {&lt;/font&gt;&lt;/div&gt;&lt;div&gt;&lt;font style=&quot;font-size: 10px;&quot;&gt;&quot;Pop Culture&quot; [&quot;&lt;span style=&quot;font-family: Aptos, sans-serif; background-color: initial;&quot;&gt;&lt;font style=&quot;&quot;&gt;This&lt;br&gt;actor plays the role of Spider-Man in the Marvel Cinematic Universe and starred&lt;br&gt;in &#39;Spider-Man: No Way Home&lt;/font&gt;&lt;/span&gt;&lt;span style=&quot;font-family: Aptos, sans-serif; background-color: initial;&quot;&gt;.&#39;&quot;, &quot;&lt;/span&gt;&lt;span style=&quot;background-color: initial;&quot;&gt;This hit HBO series, based on a series of novels by George&lt;br&gt;R.R. Martin, concluded in 2019.&quot;, &quot;&lt;/span&gt;&lt;span style=&quot;font-family: Aptos, sans-serif; background-color: initial;&quot;&gt;&lt;font style=&quot;&quot;&gt;This&lt;br&gt;social media platform, known for its short video format, surpassed one billion&lt;br&gt;active users in 2021&lt;/font&gt;&lt;/span&gt;&lt;span style=&quot;font-family: Aptos, sans-serif; background-color: initial;&quot;&gt;.&quot;, &quot;&lt;/span&gt;&lt;span style=&quot;font-family: Aptos, sans-serif; background-color: initial;&quot;&gt;&lt;font style=&quot;&quot;&gt;This&lt;br&gt;fashion designer, known for his red-soled shoes, is a favorite among&lt;br&gt;celebrities.&lt;/font&gt;&lt;/span&gt;&lt;span style=&quot;font-family: Aptos, sans-serif; background-color: initial;&quot;&gt;&quot;, &quot;&lt;/span&gt;&lt;span style=&quot;font-family: Aptos, sans-serif; background-color: initial;&quot;&gt;&lt;font style=&quot;&quot;&gt;This&lt;br&gt;dystopian novel by Suzanne Collins features a girl named Katniss Everdeen and&lt;br&gt;has been adapted into a successful film series.&quot;]&lt;/font&gt;&lt;/span&gt;&lt;/font&gt;&lt;/div&gt;&lt;div&gt;&lt;font style=&quot;font-size: 10px;&quot;&gt;&lt;span style=&quot;font-family: Aptos, sans-serif; background-color: initial;&quot;&gt;&lt;font style=&quot;&quot;&gt;&quot;Sports&quot; [&quot;&lt;/font&gt;&lt;/span&gt;&lt;span style=&quot;font-family: Aptos, sans-serif; background-color: initial;&quot;&gt;&lt;font style=&quot;&quot;&gt;This&lt;br&gt;player, often referred to as &quot;King James,&quot; has won four NBA&lt;br&gt;championships and is considered one of the greatest basketball players of all&lt;br&gt;time.&quot;, &quot;&lt;/font&gt;&lt;/span&gt;&lt;span style=&quot;font-family: Aptos, sans-serif; background-color: initial;&quot;&gt;&lt;font style=&quot;&quot;&gt;This&lt;br&gt;Argentine forward, known for his incredible dribbling and goal-scoring ability,&lt;br&gt;has won multiple Ballon d&#39;Or awards.&lt;/font&gt;&lt;/span&gt;&lt;span style=&quot;font-family: Aptos, sans-serif; background-color: initial;&quot;&gt;&quot;, &quot;&lt;/span&gt;&lt;span style=&quot;font-family: Aptos, sans-serif; background-color: initial;&quot;&gt;&lt;font style=&quot;&quot;&gt;This&lt;br&gt;Swiss tennis player has won 20 Grand Slam singles titles, including eight&lt;br&gt;Wimbledon titles.&quot;, &quot;&lt;/font&gt;&lt;/span&gt;&lt;span style=&quot;font-family: Aptos, sans-serif; background-color: initial;&quot;&gt;&lt;font style=&quot;&quot;&gt;This&lt;br&gt;quarterback, known as &quot;TB12,&quot; has won seven Super Bowl championships.&lt;/font&gt;&lt;/span&gt;&lt;span style=&quot;font-family: Aptos, sans-serif; background-color: initial;&quot;&gt;&quot;, &quot;&lt;/span&gt;&lt;span style=&quot;font-family: Aptos, sans-serif; background-color: initial;&quot;&gt;&lt;font style=&quot;&quot;&gt;This&lt;br&gt;Jamaican sprinter is known as the fastest man in the world and holds world&lt;br&gt;records in the 100m and 200m sprints.&lt;/font&gt;&lt;/span&gt;&lt;span style=&quot;font-family: Aptos, sans-serif; background-color: initial;&quot;&gt;&quot;]&lt;/span&gt;&lt;/font&gt;&lt;/div&gt;&lt;div&gt;&lt;font style=&quot;font-size: 10px;&quot;&gt;&lt;span style=&quot;font-family: Aptos, sans-serif; background-color: initial;&quot;&gt;&quot;Technology&quot; [&quot;&lt;/span&gt;&lt;/font&gt;&lt;span style=&quot;font-family: Aptos, sans-serif; background-color: initial;&quot;&gt;&lt;font style=&quot;font-size: 10px;&quot;&gt;This&lt;br&gt;term refers to the global network of interconnected computers that communicate&lt;br&gt;using the TCP/IP protocol.&lt;/font&gt;&lt;/span&gt;&lt;span style=&quot;font-family: Aptos, sans-serif; font-size: 12pt; background-color: initial;&quot;&gt;&quot;, &quot;&lt;/span&gt;&lt;span style=&quot;font-family: Aptos, sans-serif; background-color: initial;&quot;&gt;&lt;font style=&quot;font-size: 10px;&quot;&gt;This&lt;br&gt;company, founded by Steve Jobs, Steve Wozniak, and Ronald Wayne, revolutionized&lt;br&gt;personal computing with the introduction of the Macintosh in 1984.&lt;/font&gt;&lt;/span&gt;&lt;span style=&quot;font-family: Aptos, sans-serif; font-size: 12pt; background-color: initial;&quot;&gt;&quot;, &quot;&lt;/span&gt;&lt;span style=&quot;font-family: Aptos, sans-serif; background-color: initial;&quot;&gt;&lt;font style=&quot;font-size: 10px;&quot;&gt;This&lt;br&gt;programming language, created by Guido van Rossum in 1991, is known for its&lt;br&gt;simplicity and readability, making it popular for beginners and experts alike.&lt;/font&gt;&lt;/span&gt;&lt;font style=&quot;font-size: 10px;&quot;&gt;&lt;span style=&quot;font-family: Aptos, sans-serif; background-color: initial;&quot;&gt;&quot;, &quot;&lt;/span&gt;&lt;span style=&quot;font-family: Aptos, sans-serif; background-color: initial;&quot;&gt;This&lt;br&gt;operating system, developed by Google, is the most widely used mobile operating&lt;br&gt;system in the world.&quot;, &quot;&lt;/span&gt;&lt;/font&gt;&lt;span style=&quot;font-family: Aptos, sans-serif; background-color: initial;&quot;&gt;&lt;font style=&quot;font-size: 10px;&quot;&gt;This&lt;br&gt;branch of computer science focuses on creating systems capable of performing tasks&lt;br&gt;that typically require human intelligence, such as visual perception, speech&lt;br&gt;recognition, and decision-making.&lt;/font&gt;&lt;/span&gt;&lt;span style=&quot;font-family: Aptos, sans-serif; font-size: 12pt; background-color: initial;&quot;&gt;&quot;&lt;/span&gt;&lt;span style=&quot;font-family: Aptos, sans-serif; background-color: initial;&quot;&gt;&lt;font style=&quot;font-size: 10px;&quot;&gt;]&lt;/font&gt;&lt;/span&gt;&lt;/div&gt;&lt;div&gt;&lt;span style=&quot;font-family: Aptos, sans-serif; font-size: 12pt; background-color: initial;&quot;&gt;&quot;&lt;/span&gt;&lt;font style=&quot;font-size: 10px;&quot;&gt;&lt;span style=&quot;font-family: Aptos, sans-serif; background-color: initial;&quot;&gt;Geography&quot; [&quot;&lt;/span&gt;&lt;span style=&quot;font-family: Aptos, sans-serif; background-color: initial;&quot;&gt;This&lt;br&gt;city is the capital of Japan and is known for its bustling urban environment&lt;br&gt;and rich history.&quot;, &quot;&lt;/span&gt;&lt;/font&gt;&lt;span style=&quot;font-family: Aptos, sans-serif; background-color: initial;&quot;&gt;&lt;font style=&quot;&quot;&gt;&lt;span style=&quot;font-size: 10px;&quot;&gt;This&lt;/span&gt;&lt;br&gt;&lt;span style=&quot;font-size: 10px;&quot;&gt;iconic structure, built to celebrate the centennial of the French Revolution,&lt;/span&gt;&lt;br&gt;&lt;font style=&quot;font-size: 10px;&quot;&gt;is located in Paris.&lt;/font&gt;&lt;/font&gt;&lt;/span&gt;&lt;font style=&quot;font-size: 10px;&quot;&gt;&lt;span style=&quot;font-family: Aptos, sans-serif; background-color: initial;&quot;&gt;&quot;, &quot;&lt;/span&gt;&lt;span style=&quot;font-family: Aptos, sans-serif; background-color: initial;&quot;&gt;&lt;font style=&quot;&quot;&gt;This&lt;br&gt;river, the longest in the world, flows through northeastern Africa.&lt;/font&gt;&lt;/span&gt;&lt;span style=&quot;font-family: Aptos, sans-serif; background-color: initial;&quot;&gt;&quot;, &quot;&lt;/span&gt;&lt;span style=&quot;font-family: Aptos, sans-serif; background-color: initial;&quot;&gt;&lt;font style=&quot;&quot;&gt;This&lt;br&gt;mountain range, stretching across South America, is the longest continental&lt;br&gt;mountain range in the world&lt;/font&gt;&lt;/span&gt;&lt;span style=&quot;font-family: Aptos, sans-serif; background-color: initial;&quot;&gt;.&quot;, &quot;&lt;/span&gt;&lt;span style=&quot;font-family: Aptos, sans-serif; background-color: initial;&quot;&gt;&lt;font style=&quot;&quot;&gt;This&lt;br&gt;country, known for its unique wildlife such as kangaroos and koalas, is both a&lt;br&gt;country and a continent.&lt;/font&gt;&lt;/span&gt;&lt;span style=&quot;font-family: Aptos, sans-serif; background-color: initial;&quot;&gt;&quot;]&lt;/span&gt;&lt;/font&gt;&lt;/div&gt;&lt;div&gt;&lt;font style=&quot;font-size: 10px;&quot;&gt;&lt;span style=&quot;font-family: Aptos, sans-serif; background-color: initial;&quot;&gt;&lt;font style=&quot;&quot;&gt;&quot;History&quot; [&quot;&lt;/font&gt;&lt;/span&gt;&lt;span style=&quot;font-family: Aptos, sans-serif; background-color: initial;&quot;&gt;&lt;font style=&quot;&quot;&gt;This&lt;br&gt;civilization, known for its pyramids and pharaohs, flourished along the Nile&lt;br&gt;River in northeastern Africa.&lt;/font&gt;&lt;/span&gt;&lt;span style=&quot;font-family: Aptos, sans-serif; background-color: initial;&quot;&gt;&quot;, &quot;&lt;/span&gt;&lt;/font&gt;&lt;span style=&quot;font-family: Aptos, sans-serif; background-color: initial;&quot;&gt;&lt;font style=&quot;font-size: 10px;&quot;&gt;This&lt;br&gt;event, lasting from 1914 to 1918, involved many of the world&#39;s great powers and&lt;br&gt;was known as &#39;The Great War.&#39;&quot;, &quot;&lt;/font&gt;&lt;/span&gt;&lt;span style=&quot;font-family: Aptos, sans-serif; background-color: initial;&quot;&gt;&lt;font style=&quot;font-size: 10px;&quot;&gt;This&lt;br&gt;document, signed in 1776, declared the thirteen American colonies&#39; independence&lt;br&gt;from British rule.&quot;, &quot;&lt;/font&gt;&lt;/span&gt;&lt;span style=&quot;font-family: Aptos, sans-serif; background-color: initial;&quot;&gt;&lt;font style=&quot;font-size: 10px;&quot;&gt;This&lt;br&gt;civil rights leader delivered the famous &quot;I Have a Dream&quot; speech in&lt;br&gt;1963 during the March on Washington.&quot;, &quot;&lt;/font&gt;&lt;/span&gt;&lt;span style=&quot;font-family: Aptos, sans-serif; background-color: initial;&quot;&gt;&lt;font style=&quot;font-size: 10px;&quot;&gt;This&lt;br&gt;conflict, lasting from 1939 to 1945, involved global powers and resulted in&lt;br&gt;significant changes to the world&#39;s political landscape.&quot;&lt;/font&gt;&lt;/span&gt;&lt;/div&gt;&lt;div&gt;&lt;span style=&quot;font-family: Aptos, sans-serif; background-color: initial;&quot;&gt;&lt;font style=&quot;font-size: 10px;&quot;&gt;}&lt;/font&gt;&lt;/span&gt;&lt;/div&gt;&lt;p class=&quot;MsoNormal&quot;&gt;&lt;/p&gt;" style="rounded=0;whiteSpace=wrap;html=1;" vertex="1" parent="1">
          <mxGeometry x="40" y="147" width="790" height="884" as="geometry" />
        </mxCell>
        <mxCell id="3y9-HfJewCbZ7ZtlqcnH-9" value="" style="edgeStyle=orthogonalEdgeStyle;rounded=0;orthogonalLoop=1;jettySize=auto;html=1;" edge="1" parent="1" source="3y9-HfJewCbZ7ZtlqcnH-3" target="3y9-HfJewCbZ7ZtlqcnH-4">
          <mxGeometry relative="1" as="geometry" />
        </mxCell>
        <mxCell id="3y9-HfJewCbZ7ZtlqcnH-3" value="&lt;font style=&quot;font-size: 10px;&quot;&gt;answers = {&lt;/font&gt;&lt;div&gt;&lt;font style=&quot;font-size: 10px;&quot;&gt;&quot;Pop Culture&quot; [&quot;&lt;span style=&quot;font-family: Aptos, sans-serif; background-color: initial;&quot;&gt;&lt;font style=&quot;&quot;&gt;Who&lt;br&gt;is Tom Holland?&lt;/font&gt;&lt;/span&gt;&lt;span style=&quot;font-family: Aptos, sans-serif; background-color: initial;&quot;&gt;&quot;,&quot;&lt;/span&gt;&lt;span style=&quot;font-family: Aptos, sans-serif; background-color: initial;&quot;&gt;What&lt;br&gt;is &quot;Game of Thrones&quot;?&quot;, &quot;&lt;/span&gt;&lt;span style=&quot;font-family: Aptos, sans-serif; background-color: initial;&quot;&gt;What&lt;br&gt;is TikTok?&quot;, &quot;&lt;/span&gt;&lt;/font&gt;&lt;span style=&quot;font-family: Aptos, sans-serif; background-color: initial;&quot;&gt;&lt;font style=&quot;font-size: 10px;&quot;&gt;Who&lt;br&gt;is Christian Louboutin?&quot;, &quot;&lt;/font&gt;&lt;/span&gt;&lt;span style=&quot;font-family: Aptos, sans-serif; background-color: initial;&quot;&gt;&lt;font style=&quot;font-size: 10px;&quot;&gt;What&lt;br&gt;is&quot;The Hunger Games&quot;?]&lt;/font&gt;&lt;/span&gt;&lt;/div&gt;&lt;div&gt;&lt;span style=&quot;font-family: Aptos, sans-serif; background-color: initial;&quot;&gt;&lt;font style=&quot;font-size: 10px;&quot;&gt;&quot;Sports&quot; [&quot;&lt;/font&gt;&lt;/span&gt;&lt;span style=&quot;font-family: Aptos, sans-serif; background-color: initial;&quot;&gt;&lt;font style=&quot;font-size: 10px;&quot;&gt;Who&lt;br&gt;is LeBron James?&quot;, &quot;&lt;/font&gt;&lt;/span&gt;&lt;span style=&quot;background-color: initial;&quot;&gt;&lt;font style=&quot;font-size: 10px;&quot;&gt;Who is Lionel Messi?&quot;, &quot;&lt;/font&gt;&lt;/span&gt;&lt;span style=&quot;font-family: Aptos, sans-serif; background-color: initial;&quot;&gt;&lt;font style=&quot;font-size: 10px;&quot;&gt;Who&lt;br&gt;is Roger Federer?&quot;, &quot;&lt;/font&gt;&lt;/span&gt;&lt;span style=&quot;background-color: initial;&quot;&gt;&lt;font style=&quot;font-size: 10px;&quot;&gt;Who is Tom Brady?&quot;, &quot;&lt;/font&gt;&lt;/span&gt;&lt;span style=&quot;font-family: Aptos, sans-serif; background-color: initial;&quot;&gt;&lt;font style=&quot;font-size: 10px;&quot;&gt;Who&lt;br&gt;is Usain Bolt?&quot;]&lt;/font&gt;&lt;/span&gt;&lt;/div&gt;&lt;div&gt;&lt;span style=&quot;font-family: Aptos, sans-serif; background-color: initial;&quot;&gt;&lt;font style=&quot;font-size: 10px;&quot;&gt;&quot;Technology&quot; [&quot;&lt;/font&gt;&lt;/span&gt;&lt;span style=&quot;font-family: Aptos, sans-serif; background-color: initial;&quot;&gt;&lt;font style=&quot;font-size: 10px;&quot;&gt;What&lt;br&gt;is the Internet?, &quot;&lt;/font&gt;&lt;/span&gt;&lt;span style=&quot;font-family: Aptos, sans-serif; background-color: initial;&quot;&gt;&lt;font style=&quot;font-size: 10px;&quot;&gt;What&lt;br&gt;is Apple Inc.?&quot;, &quot;&lt;/font&gt;&lt;/span&gt;&lt;span style=&quot;font-family: Aptos, sans-serif; background-color: initial;&quot;&gt;&lt;font style=&quot;font-size: 10px;&quot;&gt;What&lt;br&gt;is Python?&quot;, &quot;&lt;/font&gt;&lt;/span&gt;&lt;span style=&quot;font-family: Aptos, sans-serif; background-color: initial;&quot;&gt;&lt;font style=&quot;font-size: 10px;&quot;&gt;What&lt;br&gt;is Android?&quot;, &quot;&lt;/font&gt;&lt;/span&gt;&lt;span style=&quot;font-family: Aptos, sans-serif; background-color: initial;&quot;&gt;&lt;font style=&quot;font-size: 10px;&quot;&gt;What&lt;br&gt;is Artificial Intelligence (AI)?&quot;]&lt;/font&gt;&lt;/span&gt;&lt;/div&gt;&lt;div&gt;&lt;span style=&quot;font-family: Aptos, sans-serif; background-color: initial;&quot;&gt;&lt;font style=&quot;font-size: 10px;&quot;&gt;&quot;Geography&quot; [&quot;&lt;/font&gt;&lt;/span&gt;&lt;span style=&quot;font-family: Aptos, sans-serif; background-color: initial;&quot;&gt;&lt;font style=&quot;font-size: 10px;&quot;&gt;What&lt;br&gt;is Tokyo?&quot;, &quot;&lt;/font&gt;&lt;/span&gt;&lt;span style=&quot;font-family: Aptos, sans-serif; background-color: initial;&quot;&gt;&lt;font style=&quot;font-size: 10px;&quot;&gt;What&lt;br&gt;is the Eiffel Tower?&quot;, &quot;&lt;/font&gt;&lt;/span&gt;&lt;span style=&quot;font-family: Aptos, sans-serif; background-color: initial;&quot;&gt;&lt;font style=&quot;font-size: 10px;&quot;&gt;What&lt;br&gt;is the Nile River?&quot;, &quot;&lt;/font&gt;&lt;/span&gt;&lt;span style=&quot;font-family: Aptos, sans-serif; background-color: initial;&quot;&gt;&lt;font style=&quot;font-size: 10px;&quot;&gt;What&lt;br&gt;are the Andes?&quot;, &quot;&lt;/font&gt;&lt;/span&gt;&lt;span style=&quot;font-family: Aptos, sans-serif; background-color: initial;&quot;&gt;&lt;font style=&quot;font-size: 10px;&quot;&gt;What&lt;br&gt;is Australia?&quot;]&lt;/font&gt;&lt;/span&gt;&lt;/div&gt;&lt;div&gt;&lt;span style=&quot;font-family: Aptos, sans-serif; background-color: initial;&quot;&gt;&lt;font style=&quot;font-size: 10px;&quot;&gt;&quot;History&quot; [&quot;&lt;/font&gt;&lt;/span&gt;&lt;span style=&quot;font-family: Aptos, sans-serif; background-color: initial;&quot;&gt;&lt;font style=&quot;font-size: 10px;&quot;&gt;What&lt;br&gt;is Ancient Egypt?&quot;, &quot;&lt;/font&gt;&lt;/span&gt;&lt;span style=&quot;font-family: Aptos, sans-serif; background-color: initial;&quot;&gt;&lt;font style=&quot;font-size: 10px;&quot;&gt;What&lt;br&gt;is World War I?&quot;, &quot;&lt;/font&gt;&lt;/span&gt;&lt;span style=&quot;font-family: Aptos, sans-serif; background-color: initial;&quot;&gt;&lt;font style=&quot;font-size: 10px;&quot;&gt;What&lt;br&gt;is the Declaration of Independence?&quot;, &quot;&lt;/font&gt;&lt;/span&gt;&lt;span style=&quot;font-family: Aptos, sans-serif; background-color: initial;&quot;&gt;&lt;font style=&quot;font-size: 10px;&quot;&gt;Who&lt;br&gt;is Martin Luther King Jr.?&quot;, &quot;&lt;/font&gt;&lt;/span&gt;&lt;span style=&quot;background-color: initial;&quot;&gt;&lt;font style=&quot;font-size: 10px;&quot;&gt;What is World War II?&quot;]&lt;/font&gt;&lt;/span&gt;&lt;/div&gt;&lt;div&gt;&lt;span style=&quot;background-color: initial;&quot;&gt;&lt;font style=&quot;font-size: 10px;&quot;&gt;}&lt;/font&gt;&lt;/span&gt;&lt;/div&gt;&lt;div&gt;&lt;span style=&quot;background-color: initial;&quot;&gt;&lt;font style=&quot;font-size: 10px;&quot;&gt;&lt;br&gt;&lt;/font&gt;&lt;/span&gt;&lt;/div&gt;&lt;div&gt;&lt;span style=&quot;font-size: 10px;&quot;&gt;decalrations&lt;/span&gt;&lt;/div&gt;&lt;div&gt;&lt;span style=&quot;font-size: 10px; background-color: initial;&quot;&gt;scores = [0, 0, 0]&lt;/span&gt;&lt;/div&gt;&lt;div&gt;&lt;span style=&quot;font-size: 10px; background-color: initial;&quot;&gt;totalRounds = 5&lt;/span&gt;&lt;/div&gt;&lt;div&gt;&lt;span style=&quot;font-size: 10px; background-color: initial;&quot;&gt;chosenCategory&lt;/span&gt;&lt;/div&gt;&lt;div&gt;&lt;span style=&quot;font-size: 10px;&quot;&gt;chosenValue&lt;/span&gt;&lt;/div&gt;&lt;div&gt;correctAnswer = answers[chosenCategory][chosenValue]&lt;span style=&quot;font-size: 10px;&quot;&gt;&lt;br&gt;&lt;/span&gt;&lt;/div&gt;&lt;div&gt;question = questions[chosenCategory][chosenValue]&lt;/div&gt;&lt;div&gt;players = [&quot;player 1&quot;, &quot;player2&quot;. &quot;player3&quot;]&lt;/div&gt;&lt;div&gt;&lt;br&gt;&lt;/div&gt;&lt;p class=&quot;MsoNormal&quot;&gt;&lt;/p&gt;&lt;p class=&quot;MsoNormal&quot;&gt;&lt;/p&gt;&lt;p class=&quot;MsoNormal&quot;&gt;&lt;/p&gt;" style="whiteSpace=wrap;html=1;" vertex="1" parent="1">
          <mxGeometry x="90" y="1156" width="790" height="608" as="geometry" />
        </mxCell>
        <mxCell id="3y9-HfJewCbZ7ZtlqcnH-8" value="" style="edgeStyle=orthogonalEdgeStyle;rounded=0;orthogonalLoop=1;jettySize=auto;html=1;" edge="1" parent="1" source="3y9-HfJewCbZ7ZtlqcnH-4" target="3y9-HfJewCbZ7ZtlqcnH-5">
          <mxGeometry relative="1" as="geometry" />
        </mxCell>
        <mxCell id="3y9-HfJewCbZ7ZtlqcnH-4" value="output &quot;Welcome to Jeopardy!&quot;&lt;div&gt;output categories&lt;/div&gt;&lt;div&gt;for each round in totalRounds do&lt;br&gt;&lt;/div&gt;&lt;div&gt;&lt;span style=&quot;white-space: pre;&quot;&gt;&#x9;&lt;/span&gt;for&lt;span style=&quot;background-color: initial;&quot;&gt;&amp;nbsp;each player in players do&lt;/span&gt;&lt;br&gt;&lt;/div&gt;&lt;div&gt;&lt;span style=&quot;background-color: initial;&quot;&gt;output&amp;nbsp;&lt;/span&gt;&lt;span style=&quot;background-color: initial;&quot;&gt;&quot;Player X, choose a category and a question value&quot;&lt;/span&gt;&lt;/div&gt;&lt;div&gt;&lt;span style=&quot;background-color: initial;&quot;&gt;&lt;span style=&quot;white-space: pre;&quot;&gt;&#x9;&lt;/span&gt;input chosenCategory&lt;br&gt;&lt;/span&gt;&lt;/div&gt;&lt;div&gt;&lt;span style=&quot;background-color: initial;&quot;&gt;input chosenValue&lt;/span&gt;&lt;/div&gt;&lt;div&gt;&lt;br&gt;&lt;/div&gt;&lt;div&gt;start timer&lt;/div&gt;&lt;div&gt;input playerAnswer&lt;/div&gt;&lt;div&gt;stop timer&lt;/div&gt;&lt;div&gt;&lt;br&gt;&lt;/div&gt;&lt;div&gt;If playerAnswer = correctAnswer then&amp;nbsp;&lt;/div&gt;&lt;div&gt;output &quot;Correct!&quot;&lt;/div&gt;&lt;div&gt;update scores[player] += chosenValue&lt;/div&gt;&lt;div&gt;else&lt;/div&gt;&lt;div&gt;output &quot;Incorrect! The correct answer was &quot; + correctAnswer&lt;/div&gt;&lt;div&gt;update scores[player] -= chosenValue&lt;/div&gt;&lt;div&gt;endif&lt;/div&gt;&lt;div&gt;&lt;br&gt;&lt;/div&gt;&lt;div&gt;remove question from questions[chosen_category]&lt;br&gt;&lt;/div&gt;&lt;div&gt;end for&lt;/div&gt;&lt;div&gt;&lt;br&gt;&lt;/div&gt;&lt;div&gt;end for&lt;/div&gt;&lt;div&gt;&lt;br&gt;&lt;/div&gt;" style="shape=parallelogram;perimeter=parallelogramPerimeter;whiteSpace=wrap;html=1;fixedSize=1;" vertex="1" parent="1">
          <mxGeometry x="110" y="1840" width="770" height="430" as="geometry" />
        </mxCell>
        <mxCell id="3y9-HfJewCbZ7ZtlqcnH-7" value="" style="edgeStyle=orthogonalEdgeStyle;rounded=0;orthogonalLoop=1;jettySize=auto;html=1;" edge="1" parent="1" source="3y9-HfJewCbZ7ZtlqcnH-5" target="3y9-HfJewCbZ7ZtlqcnH-6">
          <mxGeometry relative="1" as="geometry" />
        </mxCell>
        <mxCell id="3y9-HfJewCbZ7ZtlqcnH-5" value="output &quot;Final Scores: &quot;&lt;div&gt;for each player in players do&lt;/div&gt;&lt;div&gt;&amp;nbsp;output &quot;Player X:&quot;, scores[player]&amp;nbsp;&lt;/div&gt;&lt;div&gt;&amp;nbsp;end for&lt;br&gt;&lt;/div&gt;&lt;div&gt;&lt;br&gt;&lt;/div&gt;&lt;div&gt;if scores &amp;gt; highestScore then&lt;/div&gt;&lt;div&gt;highestScore = scores&lt;/div&gt;&lt;div&gt;highestScoringPlayer = players&lt;/div&gt;&lt;div&gt;&lt;br&gt;&lt;/div&gt;&lt;div&gt;end if&lt;/div&gt;&lt;div&gt;winner = player with the highest score&lt;/div&gt;&lt;div&gt;output &quot;Congratulations to the winner: &quot; + highestScoringPlayer&amp;nbsp; + &quot;with score of: &quot; + highestScore&lt;/div&gt;" style="shape=parallelogram;perimeter=parallelogramPerimeter;whiteSpace=wrap;html=1;fixedSize=1;" vertex="1" parent="1">
          <mxGeometry x="185" y="2370" width="600" height="270" as="geometry" />
        </mxCell>
        <mxCell id="3y9-HfJewCbZ7ZtlqcnH-6" value="End" style="ellipse;whiteSpace=wrap;html=1;" vertex="1" parent="1">
          <mxGeometry x="435" y="2733" width="120" height="80" as="geometry" />
        </mxCell>
        <mxCell id="3y9-HfJewCbZ7ZtlqcnH-11" style="edgeStyle=orthogonalEdgeStyle;rounded=0;orthogonalLoop=1;jettySize=auto;html=1;exitX=0.5;exitY=1;exitDx=0;exitDy=0;entryX=0.469;entryY=-0.001;entryDx=0;entryDy=0;entryPerimeter=0;" edge="1" parent="1" source="3y9-HfJewCbZ7ZtlqcnH-1" target="3y9-HfJewCbZ7ZtlqcnH-2">
          <mxGeometry relative="1" as="geometry" />
        </mxCell>
      </root>
    </mxGraphModel>
  </diagram>
</mxfile>
